<svg version="1.1" xmlns="http://www.w3.org/2000/svg" viewBox="-2565.2248363700614 -1694.7200653076172 7522.409222814153 2549.760076904297"><desc>Created with Snap</desc><defs></defs><g><rect x="-2565.2248363700614" y="-1694.7200653076172" width="7522.409222814153" height="2549.760076904297" fill="#143d59" style=""></rect><g transform="matrix(21.5279,0,0,21.5279,-2365.6644,-1495.1597)"><g><path d="M78.4,66.5c-5.5,4.8-9.9,15.2-9.9,15.2s-6.9-11.4-12.9-15.3c-9.5-6.1-13.6-6.2-13.6-6.2V65c0,0,7.8,1.2,11.7,4.6   c8.2,7.1,14.8,18.5,14.8,18.5S74.4,75,80.1,70.5C88.1,64.3,95,65,95,65v-4.8C95,60.1,85.1,60.7,78.4,66.5z" fill="#f4b41a" style=""></path><path d="M42,80c-6.4-3.6-17.8-4.3-17.8-4.3s8.7-10.1,10.5-17C37.5,47.9,36.2,44,36.2,44l-4.6,1.6c0,0,1.3,7.7-0.6,12.4   c-4.1,9.9-13,19.8-13,19.8s14.6,1.3,20.7,5.1c8.6,5.4,10.2,12,10.2,12l4.6-1.6C53.5,93.4,49.7,84.4,42,80z" fill="#f4b41a" style=""></path><path d="M35.3,36.8c11.3-0.9,14.6-3.4,14.6-3.4l-3-3.8c0,0-6.9,3.7-12.1,3.4c-10.9-0.6-23.3-5.6-23.3-5.6s3.5,14,1.8,20.9   C10.9,58.2,5,61.8,5,61.8l3,3.8c0,0,7.5-6.5,9.1-15.1c1.3-7.1-1.7-18-1.7-18S28,37.4,35.3,36.8z" fill="#f4b41a" style=""></path><path d="M37.4,17.8c7.3-1.1,16.7-7.4,16.7-7.4s-0.6,13.2,2.4,19.8c4.6,10.2,8,12.5,8,12.5l2.7-4c0,0-5.9-5.2-7.3-10.2   C56.9,18.2,57.7,5,57.7,5s-12.3,7.8-19.5,8.5c-10.2,1-15.6-3.3-15.6-3.3l-2.7,4.1C19.9,14.2,28.6,19.1,37.4,17.8z" fill="#f4b41a" style=""></path><path d="M65,60.5c0,0,3.1-7.2,7.4-10.1c9-6.1,21.9-9.7,21.9-9.7s-11.5-8.9-14.5-15.4c-4.2-9.1-1.9-15.6-1.9-15.6l-4.8-1.2   c0,0-1.9,9.6,2.2,17.4c3.4,6.4,12.5,13.2,12.5,13.2S75,42.9,69.6,47.8c-8.3,7.6-9.4,11.5-9.4,11.5L65,60.5z" fill="#f4b41a" style=""></path></g><desc>Created with Snap</desc><defs></defs></g><g><g transform="matrix(1.024,0,0,-1.024,0,0)"><path d="M77 387Q77 420 89 448Q102 476 124 496Q146 517 176 528Q207 540 243 540Q291 540 323 516Q355 492 355 454Q355 433 343 421Q332 409 312 409Q289 409 279 422Q269 436 262 452Q255 469 247 483Q239 497 220 497Q198 497 183 478Q168 459 168 431Q168 398 187 369Q207 341 231 310Q255 279 274 242Q294 205 294 155Q294 121 279 91Q265 61 240 38Q216 16 184 3Q152 -10 118 -10Q58 -10 22 16Q-13 42 -13 84Q-13 113 0 129Q14 146 37 146Q80 146 86 87Q89 55 96 44Q104 34 127 34Q163 34 184 55Q205 77 205 115Q205 155 185 186Q165 217 141 246Q117 276 97 309Q77 342 77 387ZM713 488Q675 488 634 453Q594 418 561 365Q528 313 507 252Q486 192 486 140Q486 104 501 82Q516 61 542 61Q565 61 590 79Q615 98 638 128Q662 159 683 198Q704 237 720 278Q736 320 745 360Q754 400 754 432Q754 458 743 473Q732 488 713 488ZM795 474L816 530L899 530L842 377Q828 339 814 296Q801 253 790 213Q780 173 774 140Q768 107 768 91Q768 62 787 62Q801 62 827 91Q854 120 887 166L913 145Q871 71 822 30Q774 -10 729 -10Q706 -10 693 7Q681 25 681 65Q681 74 681 86Q682 98 684 118L680 119Q665 91 644 67Q624 44 600 26Q576 9 550 -1Q524 -10 499 -10Q448 -10 419 28Q391 67 391 135Q391 204 420 276Q449 348 495 406Q541 465 597 502Q653 540 707 540Q740 540 761 524Q782 509 795 474ZM1120 62Q1136 62 1162 84Q1188 107 1217 144Q1246 182 1273 230Q1301 278 1320 330L1394 530L1487 530L1413 301Q1397 251 1386 215Q1375 180 1368 155Q1361 131 1358 115Q1355 100 1355 91Q1355 65 1373 65Q1383 65 1397 74Q1411 84 1425 100Q1440 117 1453 137Q1467 158 1477 181L1507 166Q1494 133 1473 101Q1452 70 1427 45Q1403 20 1376 5Q1349 -10 1323 -10Q1292 -10 1281 12Q1270 34 1270 75Q1270 92 1271 111Q1273 131 1277 150L1274 153Q1247 105 1221 74Q1196 43 1172 24Q1148 5 1125 -3Q1102 -10 1080 -10Q1033 -10 1014 16Q996 42 996 80Q996 122 1012 172Q1028 223 1046 268Q1064 313 1076 344Q1089 375 1096 396Q1104 417 1107 430Q1111 443 1111 451Q1111 455 1109 458Q1108 462 1102 462Q1089 462 1064 439Q1040 416 998 365L972 379Q987 408 1010 437Q1033 466 1059 489Q1085 512 1113 526Q1141 540 1165 540Q1215 540 1215 482Q1215 447 1195 391Q1176 336 1145 259Q1125 210 1112 171Q1099 132 1099 100Q1099 79 1105 70Q1111 62 1120 62ZM1882 181L1917 161Q1875 78 1819 34Q1764 -10 1701 -10Q1636 -10 1597 34Q1558 79 1558 153Q1558 197 1571 243Q1584 289 1606 332Q1628 375 1658 413Q1688 451 1722 479Q1756 507 1792 523Q1829 540 1864 540Q1912 540 1943 514Q1974 488 1974 449Q1974 424 1959 408Q1945 393 1922 393Q1899 393 1884 407Q1870 422 1870 443Q1870 456 1874 464Q1878 472 1878 479Q1878 493 1854 493Q1821 493 1787 462Q1753 431 1725 382Q1698 333 1680 272Q1663 212 1663 152Q1663 104 1681 76Q1700 49 1733 49Q1751 49 1770 59Q1790 69 1810 86Q1830 104 1848 128Q1867 152 1882 181ZM2324 154L2356 133Q2269 -10 2142 -10Q2073 -10 2036 32Q1999 75 1999 153Q1999 222 2027 291Q2056 360 2102 415Q2148 471 2205 505Q2262 540 2319 540Q2367 540 2397 515Q2428 491 2428 453Q2428 418 2402 381Q2376 344 2331 311Q2287 278 2227 251Q2168 224 2101 209Q2099 195 2098 181Q2097 168 2097 154Q2097 45 2174 45Q2211 45 2250 74Q2290 103 2324 154ZM2299 493Q2273 493 2245 473Q2217 453 2191 419Q2166 386 2145 343Q2124 300 2111 254Q2159 267 2200 288Q2241 309 2270 335Q2300 362 2317 391Q2334 421 2334 451Q2334 493 2299 493ZM2848 97Q2803 45 2754 17Q2705 -10 2656 -10Q2601 -10 2570 25Q2539 61 2539 125Q2539 250 2668 424L2666 427Q2639 427 2621 435Q2603 443 2590 453Q2578 463 2568 471Q2559 479 2548 479Q2532 479 2532 462Q2532 453 2537 446Q2543 439 2549 432Q2556 425 2561 416Q2567 408 2567 396Q2567 378 2553 366Q2539 355 2517 355Q2491 355 2477 371Q2463 387 2463 416Q2463 440 2473 462Q2483 485 2500 502Q2517 520 2539 530Q2562 540 2586 540Q2607 540 2621 533Q2635 527 2647 518Q2659 510 2670 503Q2682 497 2697 497Q2705 497 2711 500Q2718 503 2727 512Q2738 523 2749 531Q2760 540 2774 540Q2795 540 2795 520Q2795 517 2794 513Q2793 510 2788 504Q2784 498 2776 488Q2768 479 2754 463Q2725 429 2702 391Q2680 353 2665 314Q2650 276 2642 238Q2634 201 2634 168Q2634 119 2650 91Q2666 64 2695 64Q2722 64 2758 90Q2794 117 2835 165Q2833 186 2831 208Q2830 230 2830 248Q2830 302 2842 354Q2855 407 2875 448Q2895 490 2921 515Q2947 540 2974 540Q2996 540 3013 521Q3031 502 3031 457Q3031 403 3002 332Q2973 261 2918 183Q2927 135 2951 105Q2976 75 3005 75Q3033 75 3062 101Q3091 127 3115 167Q3139 208 3154 257Q3170 307 3170 354Q3170 377 3166 394Q3163 411 3158 425Q3154 440 3150 453Q3147 467 3147 483Q3147 540 3199 540Q3230 540 3243 517Q3257 494 3257 440Q3257 360 3231 279Q3205 199 3163 134Q3122 70 3070 30Q3018 -10 2966 -10Q2924 -10 2894 17Q2864 44 2848 97ZM2904 247Q2930 290 2946 333Q2963 376 2963 420Q2963 458 2948 458Q2938 458 2929 445Q2920 432 2913 410Q2907 388 2903 358Q2899 329 2899 296Q2899 282 2900 270Q2901 258 2904 247ZM3377 202L3422 330Q3436 369 3442 393Q3448 417 3448 431Q3448 445 3443 449Q3439 454 3434 454Q3423 454 3410 443Q3397 433 3384 419Q3371 405 3361 391Q3351 377 3347 369L3318 387Q3330 409 3351 436Q3373 463 3400 486Q3427 509 3456 524Q3485 540 3511 540Q3536 540 3548 525Q3561 511 3561 473Q3561 444 3543 395Q3526 346 3498 269L3461 168Q3459 163 3455 152Q3452 142 3448 130Q3445 119 3442 108Q3440 97 3440 90Q3440 81 3445 74Q3450 67 3461 67Q3476 67 3492 79Q3508 92 3523 109Q3538 126 3550 143Q3562 161 3568 171L3598 154Q3586 130 3565 101Q3545 72 3519 47Q3493 23 3462 6Q3431 -10 3398 -10Q3369 -10 3354 5Q3340 20 3340 55Q3340 84 3349 117Q3359 151 3377 202ZM3569 704Q3544 704 3525 721Q3507 738 3507 765Q3507 792 3525 811Q3543 830 3569 830Q3597 830 3615 811Q3633 792 3633 766Q3633 740 3614 722Q3595 704 3569 704ZM3682 378L3656 391Q3667 416 3689 442Q3712 469 3738 490Q3765 512 3792 526Q3819 540 3839 540Q3863 540 3874 522Q3885 504 3885 464Q3885 448 3883 433Q3882 418 3878 398L3881 395Q3893 424 3915 452Q3937 480 3962 501Q3988 523 4014 536Q4041 550 4064 550Q4093 550 4112 531Q4132 513 4132 486Q4132 460 4115 443Q4099 426 4073 426Q4057 426 4047 432Q4038 438 4031 444Q4024 451 4018 457Q4012 463 4003 463Q3984 463 3959 437Q3934 412 3907 368Q3880 324 3853 265Q3827 206 3805 138L3760 0L3667 0L3732 207Q3751 267 3763 306Q3776 346 3783 372Q3790 399 3792 414Q3795 429 3795 440Q3795 462 3780 462Q3770 462 3755 454Q3741 446 3727 434Q3713 422 3700 407Q3688 392 3682 378ZM4437 154L4469 133Q4382 -10 4255 -10Q4186 -10 4149 32Q4112 75 4112 153Q4112 222 4140 291Q4169 360 4215 415Q4261 471 4318 505Q4375 540 4432 540Q4480 540 4510 515Q4541 491 4541 453Q4541 418 4515 381Q4489 344 4444 311Q4400 278 4340 251Q4281 224 4214 209Q4212 195 4211 181Q4210 168 4210 154Q4210 45 4287 45Q4324 45 4363 74Q4403 103 4437 154ZM4412 493Q4386 493 4358 473Q4330 453 4304 419Q4279 386 4258 343Q4237 300 4224 254Q4272 267 4313 288Q4354 309 4383 335Q4413 362 4430 391Q4447 421 4447 451Q4447 493 4412 493Z" fill="#ffffff" style=""></path></g></g></g></svg>